<svg width="1280" height="720" xmlns="http://www.w3.org/2000/svg" xmlns:xlink="http://www.w3.org/1999/xlink" overflow="hidden"><defs><filter id="fx0" x="-10%" y="-10%" width="120%" height="120%" filterUnits="userSpaceOnUse" primitiveUnits="userSpaceOnUse"><feComponentTransfer color-interpolation-filters="sRGB"><feFuncR type="discrete" tableValues="0 0"/><feFuncG type="discrete" tableValues="0 0"/><feFuncB type="discrete" tableValues="0 0"/><feFuncA type="linear" slope="0.301961" intercept="0"/></feComponentTransfer><feGaussianBlur stdDeviation="2.46785 2.46785"/></filter><filter id="fx1" x="-10%" y="-10%" width="120%" height="120%" filterUnits="userSpaceOnUse" primitiveUnits="userSpaceOnUse"><feComponentTransfer color-interpolation-filters="sRGB"><feFuncR type="discrete" tableValues="0 0"/><feFuncG type="discrete" tableValues="0 0"/><feFuncB type="discrete" tableValues="0 0"/><feFuncA type="linear" slope="0.301961" intercept="0"/></feComponentTransfer><feGaussianBlur stdDeviation="1.07015 1.07015"/></filter><clipPath id="clip2"><rect x="1" y="2" width="22" height="28"/></clipPath></defs><g><rect x="0" y="0" width="1280" height="720" fill="#FFFFFF"/><g filter="url(#fx0)" transform="translate(390 175)"><g><path d="M659.117 45.7182 635.438 116.885 682.926 116.885 659.246 45.7182ZM44.8499 40.413 44.8499 154.28 62.5769 154.28C71.8934 154.28 79.7433 153.073 86.1268 150.657 92.5102 148.242 97.837 144.597 102.107 139.723 106.377 134.849 109.569 128.789 111.682 121.543 113.796 114.297 114.852 105.844 114.852 96.1821 114.852 88.2459 113.925 80.8704 112.07 74.0556 110.216 67.2408 107.24 61.3318 103.142 56.3286 99.0446 51.3253 93.7826 47.4219 87.356 44.6183 80.9294 41.8148 72.4972 40.413 62.0594 40.413ZM477.303 13.7578 595.311 13.7578C596.087 13.7578 596.799 13.995 597.446 14.4694 598.093 14.9439 598.632 15.7202 599.063 16.7985 599.495 17.8768 599.818 19.3217 600.034 21.1332 600.249 22.9448 600.357 25.1445 600.357 27.7324 600.357 30.234 600.249 32.369 600.034 34.1374 599.818 35.9058 599.495 37.3291 599.063 38.4074 598.632 39.4857 598.093 40.2836 597.446 40.8012 596.799 41.3188 596.087 41.5776 595.311 41.5776L553.387 41.5776 553.387 176.536C553.387 177.399 553.107 178.175 552.546 178.865 551.985 179.555 551.058 180.116 549.764 180.547 548.47 180.979 546.723 181.324 544.523 181.582 542.324 181.841 539.585 181.971 536.307 181.971 533.029 181.971 530.29 181.841 528.09 181.582 525.891 181.324 524.144 180.979 522.85 180.547 521.556 180.116 520.629 179.555 520.068 178.865 519.507 178.175 519.227 177.399 519.227 176.536L519.227 41.5776 477.303 41.5776C476.44 41.5776 475.707 41.3188 475.103 40.8012 474.499 40.2836 473.982 39.4857 473.551 38.4074 473.119 37.3291 472.796 35.9058 472.58 34.1374 472.364 32.369 472.257 30.234 472.257 27.7324 472.257 25.1445 472.364 22.9448 472.58 21.1332 472.796 19.3217 473.119 17.8768 473.551 16.7985 473.982 15.7202 474.499 14.9439 475.103 14.4694 475.707 13.995 476.44 13.7578 477.303 13.7578ZM21.0413 13.7578 64.0003 13.7578C78.9238 13.7578 91.5829 15.5046 101.978 18.9982 112.372 22.4919 121.128 27.6677 128.245 34.5256 135.361 41.3835 140.774 49.8588 144.484 59.9516 148.193 70.0444 150.048 81.733 150.048 95.0175 150.048 110.372 148.042 123.506 144.031 134.418 140.02 145.33 134.262 154.237 126.757 161.138 119.252 168.039 110.129 173.107 99.3897 176.342 88.6499 179.577 75.8615 181.194 61.0242 181.194L21.0413 181.194C18.1946 181.194 15.8008 180.353 13.8599 178.671 11.919 176.989 10.9485 174.25 10.9485 170.455L10.9485 24.4975C10.9485 20.7019 11.919 17.9631 13.8599 16.2809 15.8008 14.5988 18.1946 13.7578 21.0413 13.7578ZM777.029 12.9814C780.393 12.9814 783.153 13.1108 785.31 13.3696 787.466 13.6284 789.192 13.9734 790.486 14.4047 791.78 14.836 792.707 15.3967 793.268 16.0869 793.828 16.777 794.109 17.5533 794.109 18.416L794.109 153.116 846.772 153.116C847.635 153.116 848.39 153.353 849.037 153.827 849.684 154.302 850.223 155.078 850.654 156.156 851.085 157.235 851.409 158.658 851.625 160.426 851.84 162.195 851.948 164.373 851.948 166.961 851.948 169.549 851.84 171.727 851.625 173.495 851.409 175.264 851.085 176.73 850.654 177.895 850.223 179.059 849.684 179.9 849.037 180.418 848.39 180.935 847.635 181.194 846.772 181.194L770.041 181.194C767.195 181.194 764.801 180.353 762.86 178.671 760.919 176.989 759.948 174.25 759.948 170.455L759.948 18.416C759.948 17.5533 760.229 16.777 760.79 16.0869 761.35 15.3967 762.278 14.836 763.572 14.4047 764.865 13.9734 766.612 13.6284 768.812 13.3696 771.012 13.1108 773.751 12.9814 777.029 12.9814ZM659.635 12.9814C664.724 12.9814 668.778 13.0461 671.798 13.1755 674.817 13.3049 677.167 13.6068 678.85 14.0812 680.532 14.5557 681.739 15.2673 682.473 16.2162 683.206 17.1651 683.831 18.4591 684.349 20.0981L736.107 168.514C737.142 171.619 737.789 174.078 738.048 175.889 738.306 177.701 737.961 179.059 737.012 179.965 736.064 180.871 734.381 181.432 731.966 181.647 729.551 181.863 726.23 181.971 722.003 181.971 717.603 181.971 714.174 181.906 711.716 181.777 709.257 181.647 707.381 181.388 706.087 181 704.793 180.612 703.887 180.073 703.37 179.383 702.852 178.693 702.421 177.787 702.076 176.665L690.819 143.023 627.933 143.023 617.323 175.76C616.977 176.967 616.525 177.981 615.964 178.8 615.403 179.62 614.497 180.267 613.247 180.741 611.996 181.216 610.227 181.539 607.941 181.712 605.655 181.884 602.658 181.971 598.948 181.971 594.98 181.971 591.875 181.841 589.632 181.582 587.389 181.324 585.837 180.698 584.974 179.706 584.111 178.714 583.809 177.312 584.068 175.501 584.327 173.689 584.974 171.274 586.009 168.255L637.637 19.7099C638.155 18.2434 638.759 17.0573 639.449 16.1516 640.139 15.2458 641.239 14.5557 642.749 14.0812 644.258 13.6068 646.35 13.3049 649.024 13.1755 651.698 13.0461 655.235 12.9814 659.635 12.9814ZM435.029 12.9814C438.393 12.9814 441.153 13.1108 443.31 13.3696 445.466 13.6284 447.192 13.9734 448.486 14.4047 449.78 14.836 450.707 15.3967 451.268 16.0869 451.828 16.777 452.109 17.5533 452.109 18.416L452.109 176.536C452.109 177.399 451.828 178.175 451.268 178.865 450.707 179.555 449.78 180.116 448.486 180.547 447.192 180.979 445.466 181.324 443.31 181.582 441.153 181.841 438.393 181.971 435.029 181.971 431.751 181.971 429.012 181.841 426.812 181.582 424.612 181.324 422.866 180.979 421.572 180.547 420.278 180.116 419.35 179.555 418.79 178.865 418.229 178.175 417.949 177.399 417.949 176.536L417.949 18.416C417.949 17.5533 418.229 16.777 418.79 16.0869 419.35 15.3967 420.299 14.836 421.636 14.4047 422.973 13.9734 424.72 13.6284 426.877 13.3696 429.033 13.1108 431.751 12.9814 435.029 12.9814ZM195.029 12.9814C198.393 12.9814 201.153 13.1108 203.31 13.3696 205.466 13.6284 207.192 13.9734 208.486 14.4047 209.78 14.836 210.707 15.3967 211.268 16.0869 211.828 16.777 212.109 17.5533 212.109 18.416L212.109 176.536C212.109 177.399 211.828 178.175 211.268 178.865 210.707 179.555 209.78 180.116 208.486 180.547 207.192 180.979 205.466 181.324 203.31 181.582 201.153 181.841 198.393 181.971 195.029 181.971 191.751 181.971 189.012 181.841 186.812 181.582 184.612 181.324 182.866 180.979 181.572 180.547 180.278 180.116 179.35 179.555 178.79 178.865 178.229 178.175 177.949 177.399 177.949 176.536L177.949 18.416C177.949 17.5533 178.229 16.777 178.79 16.0869 179.35 15.3967 180.299 14.836 181.636 14.4047 182.973 13.9734 184.72 13.6284 186.877 13.3696 189.033 13.1108 191.751 12.9814 195.029 12.9814ZM327.362 10.9111C334.608 10.9111 341.207 11.4071 347.159 12.3991 353.111 13.3911 358.308 14.5988 362.751 16.0222 367.194 17.4455 370.881 18.9767 373.814 20.6157 376.747 22.2547 378.796 23.678 379.96 24.8857 381.125 26.0934 381.966 27.7971 382.484 29.9968 383.001 32.1965 383.26 35.4529 383.26 39.7661 383.26 42.2677 383.152 44.4243 382.937 46.2358 382.721 48.0473 382.419 49.4922 382.031 50.5705 381.643 51.6488 381.168 52.4036 380.607 52.8349 380.047 53.2662 379.378 53.4819 378.602 53.4819 377.48 53.4819 375.669 52.7055 373.167 51.1528 370.666 49.6 367.345 47.9179 363.204 46.1064 359.063 44.2949 354.125 42.6127 348.388 41.06 342.652 39.5073 335.988 38.7309 328.397 38.7309 320.288 38.7309 312.956 40.1327 306.4 42.9362 299.844 45.7398 294.237 49.7079 289.578 54.8405 284.92 59.9732 281.34 66.141 278.839 73.3439 276.337 80.5469 275.086 88.5047 275.086 97.2172 275.086 106.792 276.359 115.225 278.903 122.514 281.448 129.803 285.006 135.906 289.578 140.823 294.15 145.74 299.65 149.449 306.076 151.951 312.503 154.453 319.598 155.704 327.362 155.704 331.157 155.704 334.91 155.272 338.619 154.41 342.328 153.547 345.779 152.253 348.971 150.528L348.971 111.709 317.269 111.709C315.716 111.709 314.508 110.739 313.646 108.798 312.783 106.857 312.352 103.558 312.352 98.8994 312.352 96.484 312.46 94.4568 312.675 92.8178 312.891 91.1788 313.214 89.8633 313.646 88.8713 314.077 87.8792 314.595 87.146 315.199 86.6716 315.802 86.1971 316.492 85.9599 317.269 85.9599L373.814 85.9599C375.194 85.9599 376.424 86.1971 377.502 86.6716 378.58 87.146 379.529 87.8577 380.349 88.8066 381.168 89.7555 381.794 90.8985 382.225 92.2355 382.656 93.5726 382.872 95.1038 382.872 96.829L382.872 163.467C382.872 166.055 382.419 168.32 381.513 170.26 380.607 172.201 378.753 173.733 375.949 174.854 373.146 175.975 369.674 177.14 365.533 178.348 361.392 179.555 357.101 180.59 352.658 181.453 348.216 182.316 343.73 182.963 339.201 183.394 334.672 183.825 330.122 184.041 325.55 184.041 312.179 184.041 300.21 182.122 289.643 178.283 279.076 174.444 270.126 168.88 262.794 161.591 255.461 154.302 249.854 145.417 245.972 134.936 242.091 124.455 240.15 112.572 240.15 99.2875 240.15 85.5717 242.22 73.2577 246.361 62.3454 250.501 51.4331 256.367 42.1599 263.958 34.5256 271.549 26.8913 280.715 21.047 291.455 16.9926 302.194 12.9382 314.163 10.9111 327.362 10.9111Z" stroke="#00B0F0" stroke-width="4" stroke-linejoin="round" stroke-miterlimit="10" fill="#FFFFFF" fill-rule="evenodd"/></g></g><path d="M1049.12 216.427 1025.44 287.594 1072.93 287.594 1049.25 216.427ZM434.85 211.122 434.85 324.989 452.577 324.989C461.893 324.989 469.743 323.782 476.127 321.366 482.51 318.951 487.837 315.306 492.107 310.432 496.377 305.559 499.569 299.499 501.682 292.253 503.796 285.006 504.852 276.553 504.852 266.891 504.852 258.955 503.925 251.58 502.07 244.765 500.216 237.95 497.24 232.041 493.142 227.038 489.045 222.034 483.783 218.131 477.356 215.327 470.929 212.524 462.497 211.122 452.059 211.122ZM867.303 184.467 985.311 184.467C986.087 184.467 986.799 184.704 987.446 185.179 988.093 185.653 988.632 186.429 989.063 187.508 989.495 188.586 989.818 190.031 990.034 191.842 990.249 193.654 990.357 195.854 990.357 198.441 990.357 200.943 990.249 203.078 990.034 204.847 989.818 206.615 989.495 208.038 989.063 209.117 988.632 210.195 988.093 210.993 987.446 211.51 986.799 212.028 986.087 212.287 985.311 212.287L943.387 212.287 943.387 347.245C943.387 348.108 943.107 348.884 942.546 349.574 941.985 350.264 941.058 350.825 939.764 351.256 938.47 351.688 936.723 352.033 934.523 352.292 932.324 352.55 929.585 352.68 926.307 352.68 923.029 352.68 920.29 352.55 918.09 352.292 915.891 352.033 914.144 351.688 912.85 351.256 911.556 350.825 910.629 350.264 910.068 349.574 909.507 348.884 909.227 348.108 909.227 347.245L909.227 212.287 867.303 212.287C866.44 212.287 865.707 212.028 865.103 211.51 864.499 210.993 863.982 210.195 863.551 209.117 863.119 208.038 862.796 206.615 862.58 204.847 862.364 203.078 862.257 200.943 862.257 198.441 862.257 195.854 862.364 193.654 862.58 191.842 862.796 190.031 863.119 188.586 863.551 187.508 863.982 186.429 864.499 185.653 865.103 185.179 865.707 184.704 866.44 184.467 867.303 184.467ZM411.041 184.467 454 184.467C468.924 184.467 481.583 186.214 491.978 189.707 502.372 193.201 511.128 198.377 518.245 205.235 525.361 212.093 530.774 220.568 534.484 230.661 538.193 240.754 540.048 252.442 540.048 265.727 540.048 281.081 538.042 294.215 534.031 305.127 530.02 316.04 524.262 324.946 516.757 331.847 509.252 338.748 500.129 343.816 489.39 347.051 478.65 350.286 465.861 351.903 451.024 351.903L411.041 351.903C408.195 351.903 405.801 351.062 403.86 349.38 401.919 347.698 400.949 344.959 400.949 341.164L400.949 195.207C400.949 191.411 401.919 188.672 403.86 186.99 405.801 185.308 408.195 184.467 411.041 184.467ZM1167.03 183.691C1170.39 183.691 1173.15 183.82 1175.31 184.079 1177.47 184.337 1179.19 184.683 1180.49 185.114 1181.78 185.545 1182.71 186.106 1183.27 186.796 1183.83 187.486 1184.11 188.262 1184.11 189.125L1184.11 323.825 1236.77 323.825C1237.63 323.825 1238.39 324.062 1239.04 324.536 1239.68 325.011 1240.22 325.787 1240.65 326.866 1241.09 327.944 1241.41 329.367 1241.62 331.136 1241.84 332.904 1241.95 335.082 1241.95 337.67 1241.95 340.258 1241.84 342.436 1241.62 344.204 1241.41 345.973 1241.09 347.439 1240.65 348.604 1240.22 349.768 1239.68 350.609 1239.04 351.127 1238.39 351.645 1237.63 351.903 1236.77 351.903L1160.04 351.903C1157.19 351.903 1154.8 351.062 1152.86 349.38 1150.92 347.698 1149.95 344.959 1149.95 341.164L1149.95 189.125C1149.95 188.262 1150.23 187.486 1150.79 186.796 1151.35 186.106 1152.28 185.545 1153.57 185.114 1154.87 184.683 1156.61 184.337 1158.81 184.079 1161.01 183.82 1163.75 183.691 1167.03 183.691ZM1049.63 183.691C1054.72 183.691 1058.78 183.755 1061.8 183.885 1064.82 184.014 1067.17 184.316 1068.85 184.79 1070.53 185.265 1071.74 185.976 1072.47 186.925 1073.21 187.874 1073.83 189.168 1074.35 190.807L1126.11 339.223C1127.14 342.328 1127.79 344.787 1128.05 346.598 1128.31 348.41 1127.96 349.768 1127.01 350.674 1126.06 351.58 1124.38 352.141 1121.97 352.356 1119.55 352.572 1116.23 352.68 1112 352.68 1107.6 352.68 1104.17 352.615 1101.72 352.486 1099.26 352.356 1097.38 352.098 1096.09 351.709 1094.79 351.321 1093.89 350.782 1093.37 350.092 1092.85 349.402 1092.42 348.496 1092.08 347.375L1080.82 313.732 1017.93 313.732 1007.32 346.469C1006.98 347.677 1006.52 348.69 1005.96 349.51 1005.4 350.329 1004.5 350.976 1003.25 351.451 1002 351.925 1000.23 352.248 997.941 352.421 995.655 352.594 992.658 352.68 988.948 352.68 984.98 352.68 981.875 352.55 979.632 352.292 977.389 352.033 975.837 351.407 974.974 350.415 974.111 349.423 973.809 348.022 974.068 346.21 974.327 344.399 974.974 341.983 976.009 338.964L1027.64 190.419C1028.16 188.953 1028.76 187.766 1029.45 186.861 1030.14 185.955 1031.24 185.265 1032.75 184.79 1034.26 184.316 1036.35 184.014 1039.02 183.885 1041.7 183.755 1045.24 183.691 1049.63 183.691ZM825.029 183.691C828.393 183.691 831.153 183.82 833.31 184.079 835.466 184.337 837.192 184.683 838.486 185.114 839.78 185.545 840.707 186.106 841.268 186.796 841.828 187.486 842.109 188.262 842.109 189.125L842.109 347.245C842.109 348.108 841.828 348.884 841.268 349.574 840.707 350.264 839.78 350.825 838.486 351.256 837.192 351.688 835.466 352.033 833.31 352.292 831.153 352.55 828.393 352.68 825.029 352.68 821.751 352.68 819.012 352.55 816.812 352.292 814.612 352.033 812.866 351.688 811.572 351.256 810.278 350.825 809.35 350.264 808.79 349.574 808.229 348.884 807.949 348.108 807.949 347.245L807.949 189.125C807.949 188.262 808.229 187.486 808.79 186.796 809.35 186.106 810.299 185.545 811.636 185.114 812.973 184.683 814.72 184.337 816.877 184.079 819.033 183.82 821.751 183.691 825.029 183.691ZM585.029 183.691C588.393 183.691 591.153 183.82 593.31 184.079 595.466 184.337 597.192 184.683 598.486 185.114 599.78 185.545 600.707 186.106 601.268 186.796 601.828 187.486 602.109 188.262 602.109 189.125L602.109 347.245C602.109 348.108 601.828 348.884 601.268 349.574 600.707 350.264 599.78 350.825 598.486 351.256 597.192 351.688 595.466 352.033 593.31 352.292 591.153 352.55 588.393 352.68 585.029 352.68 581.751 352.68 579.012 352.55 576.812 352.292 574.612 352.033 572.866 351.688 571.572 351.256 570.278 350.825 569.35 350.264 568.79 349.574 568.229 348.884 567.949 348.108 567.949 347.245L567.949 189.125C567.949 188.262 568.229 187.486 568.79 186.796 569.35 186.106 570.299 185.545 571.636 185.114 572.973 184.683 574.72 184.337 576.877 184.079 579.033 183.82 581.751 183.691 585.029 183.691ZM717.362 181.62C724.608 181.62 731.207 182.116 737.159 183.108 743.111 184.1 748.308 185.308 752.751 186.731 757.194 188.155 760.881 189.686 763.814 191.325 766.747 192.964 768.796 194.387 769.96 195.595 771.125 196.803 771.966 198.506 772.484 200.706 773.001 202.906 773.26 206.162 773.26 210.475 773.26 212.977 773.152 215.133 772.937 216.945 772.721 218.756 772.419 220.201 772.031 221.28 771.643 222.358 771.168 223.113 770.607 223.544 770.047 223.975 769.378 224.191 768.602 224.191 767.48 224.191 765.669 223.415 763.167 221.862 760.666 220.309 757.344 218.627 753.204 216.816 749.063 215.004 744.125 213.322 738.388 211.769 732.652 210.216 725.988 209.44 718.397 209.44 710.288 209.44 702.956 210.842 696.4 213.645 689.844 216.449 684.237 220.417 679.578 225.55 674.92 230.682 671.34 236.85 668.839 244.053 666.337 251.256 665.086 259.214 665.086 267.926 665.086 277.502 666.359 285.934 668.903 293.223 671.448 300.512 675.006 306.615 679.578 311.532 684.15 316.449 689.65 320.159 696.076 322.66 702.503 325.162 709.598 326.413 717.362 326.413 721.157 326.413 724.91 325.981 728.619 325.119 732.328 324.256 735.779 322.962 738.971 321.237L738.971 282.419 707.269 282.419C705.716 282.419 704.508 281.448 703.646 279.507 702.783 277.566 702.352 274.267 702.352 269.608 702.352 267.193 702.46 265.166 702.675 263.527 702.891 261.888 703.214 260.572 703.646 259.58 704.077 258.588 704.595 257.855 705.198 257.381 705.802 256.906 706.492 256.669 707.269 256.669L763.814 256.669C765.194 256.669 766.424 256.906 767.502 257.381 768.58 257.855 769.529 258.567 770.349 259.516 771.168 260.465 771.794 261.608 772.225 262.945 772.656 264.282 772.872 265.813 772.872 267.538L772.872 334.176C772.872 336.764 772.419 339.029 771.513 340.97 770.607 342.91 768.753 344.442 765.949 345.563 763.146 346.685 759.674 347.849 755.533 349.057 751.392 350.264 747.101 351.3 742.658 352.162 738.216 353.025 733.73 353.672 729.201 354.103 724.672 354.534 720.122 354.75 715.55 354.75 702.179 354.75 690.21 352.831 679.643 348.992 669.076 345.153 660.126 339.589 652.794 332.3 645.461 325.011 639.854 316.126 635.972 305.645 632.091 295.164 630.15 283.281 630.15 269.997 630.15 256.281 632.22 243.967 636.361 233.055 640.501 222.142 646.367 212.869 653.958 205.235 661.549 197.6 670.715 191.756 681.455 187.702 692.194 183.647 704.163 181.62 717.362 181.62Z" stroke="#00B0F0" stroke-width="4" stroke-linejoin="round" stroke-miterlimit="10" fill="#FFFFFF" fill-rule="evenodd"/><text fill="#000000" fill-opacity="0" font-family="Arial,Arial_MSFontService,sans-serif" font-size="173.13" x="400.949" y="333.109">DIGITAL</text><g clip-path="url(#clip2)" filter="url(#fx1)" transform="translate(400 146)"><g><path d="M14.6686 5.83142C15.4889 5.83142 16.192 5.87244 16.778 5.95447 17.3639 6.0365 17.8503 6.21228 18.237 6.48181 18.6237 6.75134 18.9049 7.1322 19.0807 7.62439 19.2565 8.11658 19.3444 8.76111 19.3444 9.55798 19.3444 10.472 19.2975 11.3099 19.2038 12.0717 19.11 12.8334 18.9577 13.5541 18.7467 14.2338 18.5358 14.9135 18.2663 15.5756 17.9381 16.2201 17.61 16.8646 17.1999 17.5267 16.7077 18.2064L11.9967 24.9564C11.8327 25.1908 11.651 25.39 11.4518 25.5541 11.2526 25.7181 11.0124 25.8529 10.7311 25.9584 10.4499 26.0638 10.11 26.14 9.71158 26.1869 9.31314 26.2338 8.80923 26.2572 8.19986 26.2572 7.52017 26.2572 6.96939 26.2338 6.54752 26.1869 6.12564 26.14 5.82095 26.058 5.63345 25.9408 5.44595 25.8236 5.34634 25.6654 5.33463 25.4662 5.32291 25.267 5.37564 25.0385 5.49283 24.7806L9.78189 15.0775 9.78189 9.55798C9.78189 8.76111 9.87564 8.11658 10.0631 7.62439 10.2506 7.1322 10.5436 6.75134 10.942 6.48181 11.3405 6.21228 11.8444 6.0365 12.4538 5.95447 13.0631 5.87244 13.8014 5.83142 14.6686 5.83142Z" stroke="#00B0F0" stroke-linejoin="round" stroke-miterlimit="10" fill="#FFFFFF" fill-rule="evenodd"/></g></g><path d="M414.669 149.87C415.489 149.87 416.192 149.911 416.778 149.993 417.364 150.075 417.85 150.251 418.237 150.52 418.624 150.79 418.905 151.171 419.081 151.663 419.257 152.155 419.344 152.8 419.344 153.597 419.344 154.511 419.298 155.349 419.204 156.11 419.11 156.872 418.958 157.593 418.747 158.272 418.536 158.952 418.266 159.614 417.938 160.259 417.61 160.903 417.2 161.565 416.708 162.245L411.997 168.995C411.833 169.229 411.651 169.429 411.452 169.593 411.253 169.757 411.012 169.892 410.731 169.997 410.45 170.102 410.11 170.179 409.712 170.226 409.313 170.272 408.809 170.296 408.2 170.296 407.52 170.296 406.969 170.272 406.548 170.226 406.126 170.179 405.821 170.097 405.633 169.979 405.446 169.862 405.346 169.704 405.335 169.505 405.323 169.306 405.376 169.077 405.493 168.819L409.782 159.116 409.782 153.597C409.782 152.8 409.876 152.155 410.063 151.663 410.251 151.171 410.544 150.79 410.942 150.52 411.34 150.251 411.844 150.075 412.454 149.993 413.063 149.911 413.801 149.87 414.669 149.87Z" stroke="#00B0F0" stroke-linejoin="round" stroke-miterlimit="10" fill="#FFFFFF" fill-rule="evenodd"/><text fill="#000000" fill-opacity="0" font-family="Arial,Arial_MSFontService,sans-serif" font-size="20.4258" x="405.333" y="167.743">’</text><path d="M262.725 101C314.209 101 360.21 124.445 390.607 161.227L400 173.771 400 359.229 390.607 371.773C360.21 408.555 314.209 432 262.725 432 171.198 432 97 357.903 97 266.5 97 175.097 171.198 101 262.725 101Z" stroke="#00B0F0" stroke-width="8" stroke-miterlimit="8" fill="none" fill-rule="evenodd"/></g></svg>